<?xml version="1.0" encoding="UTF-8" standalone="no"?>
<!-- Created with Inkscape (http://www.inkscape.org/) -->

<svg
   width="210mm"
   height="297mm"
   viewBox="0 0 210 297"
   version="1.1"
   id="svg5"
   inkscapeversion="1.1.1 (3bf5ae0d25, 2021-09-20)"
   sodipodidocname="dota2.svg"
   xmlnsinkscape="http://www.inkscape.org/namespaces/inkscape"
   xmlnssodipodi="http://sodipodi.sourceforge.net/DTD/sodipodi-0.dtd"
   xmlns="http://www.w3.org/2000/svg"
   xmlnssvg="http://www.w3.org/2000/svg">
  <sodipodinamedview
     id="namedview7"
     pagecolor="#505050"
     bordercolor="#eeeeee"
     borderopacity="1"
     inkscapepageshadow="0"
     inkscapepageopacity="0"
     inkscapepagecheckerboard="0"
     inkscape-document-units="mm"
     showgrid="false"
     inkscapezoom="0.98520767"
     inkscapecx="442.03878"
     inkscapecy="549.1228"
     inkscape-window-width="1920"
     inkscape-window-height="986"
     inkscape-window-x="-11"
     inkscape-window-y="-11"
     inkscape-window-maximized="1"
     inkscape-current-layer="layer1" />
  <defs
     id="defs2" />
  <g
     inkscapelabel="Layer 1"
     inkscapegroupmode="layer"
     id="layer1">
    <path
       style="fill:#800000;stroke-width:0.268555"
       d="m 109.82798,233.77729 c -0.58457,-0.17695 -1.78795,-0.63065 -2.67418,-1.00821 -1.14374,-0.48726 -2.3517,-0.74135 -4.16262,-0.87559 -1.85093,-0.1372 -3.096228,-0.4041 -4.536468,-0.97226 l -1.9852,-0.78314 -1.97754,1.36707 c -3.37714,2.33462 -4.7232,2.14032 -6.83305,-0.98635 -1.88984,-2.80061 -2.04847,-2.85775 -7.31428,-2.63442 l -4.34332,0.18421 -3.53442,-0.98583 -3.53442,-0.98582 -1.70242,0.4742 c -1.20265,0.33499 -2.8456,0.49087 -5.59648,0.53096 -2.14174,0.0312 -11.38677,0.16906 -20.54453,0.30631 -9.51604,0.14263 -17.76464,0.14973 -19.25075,0.0166 -4.64535,-0.41621 -7.54666,-1.68689 -8.43166,-3.69278 -0.25701,-0.58252 -0.7087,-1.12225 -1.00375,-1.19941 -0.51759,-0.13535 -0.52816,-0.26604 -0.30042,-3.71277 0.30021,-4.5434 0.30628,-9.05333 0.0279,-20.69292 -0.14622,-6.1131 -0.13175,-9.33232 0.0419,-9.33232 0.14583,0 1.09222,-0.85526 2.1031,-1.90058 1.6551,-1.7115 1.85654,-2.0388 2.02474,-3.28982 0.10272,-0.76407 0.32392,-2.2956 0.49155,-3.40339 0.20337,-1.34397 0.24361,-3.89626 0.12092,-7.67048 l -0.18387,-5.65631 -0.78853,-0.52048 c -0.43368,-0.28626 -1.35137,-1.33998 -2.03929,-2.34161 l -1.25078,-1.82114 -0.18924,-3.54998 c -0.3021,-5.66685 -0.34954,-14.73327 -0.0832,-15.90355 0.21576,-0.9481 0.41789,-1.16136 1.72152,-1.81637 1.90111,-0.95522 2.67692,-2.4112 2.68211,-5.03357 0.002,-0.96107 0.12377,-2.16692 0.27083,-2.67968 0.24731,-0.86233 0.20661,-0.97983 -0.54244,-1.56605 -1.07426,-0.84074 -1.4939,-1.71209 -2.27814,-4.73048 -0.54224,-2.08696 -0.60441,-2.67642 -0.35709,-3.38588 0.42254,-1.2121 0.10487,-12.66471 -0.42246,-15.23037 -0.22011,-1.07092 -0.84183,-3.30665 -1.38161,-4.96828 -1.3238,-4.075151 -1.45788,-6.693483 -0.69139,-13.502448 0.66379,-5.896734 1.06694,-11.488833 1.37407,-19.05985 0.11983,-2.954115 0.35393,-6.211829 0.52021,-7.239363 0.27337,-1.68929 0.23569,-2.165193 -0.39337,-4.968285 -0.38264,-1.705022 -0.75918,-4.066841 -0.83676,-5.248486 -0.13456,-2.049351 -0.10356,-2.206493 0.67209,-3.406865 1.22756,-1.899714 1.69521,-2.103395 5.46159,-2.378742 1.81921,-0.132995 4.25487,-0.426482 5.41258,-0.65219 2.6353,-0.513778 5.81527,-0.522308 8.77158,-0.02352 2.0312,0.342699 5.30446,0.555117 17.18758,1.115388 1.84632,0.08705 5.44486,0.509759 7.99675,0.939353 4.31252,0.725982 5.14165,0.781079 11.75427,0.781079 7.03132,0 7.1293,-0.0077 8.38515,-0.659726 0.69889,-0.362846 3.98983,-1.878549 7.31321,-3.368225 l 6.04251,-2.7085 9.668008,0.09097 c 6.60187,0.06212 9.97332,0.193566 10.6307,0.414475 1.21559,0.408492 2.82235,1.998551 3.21172,3.178333 l 0.29842,0.904224 h 1.8178 c 2.22061,0 2.93884,0.336582 4.84527,2.270631 1.33125,1.350544 1.57595,1.489151 2.629,1.489151 2.11724,0 6.37155,-0.567967 6.7076,-0.895492 0.18194,-0.177327 0.45007,-0.951315 0.59585,-1.719975 0.14577,-0.768657 0.56444,-1.988399 0.93037,-2.710534 0.84069,-1.659025 1.94491,-2.228091 4.40953,-2.272483 2.55456,-0.04601 11.01394,0.560409 12.12952,0.869519 0.51697,0.143246 2.7527,0.37863 4.96829,0.523079 5.49068,0.357973 6.68732,0.644919 11.81646,2.833489 2.68125,1.144074 3.10295,1.249032 4.56545,1.136306 0.94835,-0.0731 2.21907,-0.41103 3.08839,-0.821322 1.42336,-0.67178 1.65766,-0.697204 6.44534,-0.699379 8.43661,-0.0038 10.9102,0.768146 14.3435,4.476422 2.79412,3.017914 2.98957,3.871021 1.98933,8.683154 -0.57185,2.751177 -0.57829,2.994266 -0.25217,9.533731 0.18405,3.690816 0.44334,8.523327 0.5762,10.738914 0.79611,13.276228 0.4934,22.612627 -0.84171,25.960537 -0.1571,0.39395 -1.25102,1.53094 -2.43093,2.52665 -1.73507,1.4642 -2.11535,1.91778 -1.98876,2.37211 0.0861,0.30896 0.23074,1.2327 0.32145,2.05276 0.14758,1.334 0.0625,1.71274 -0.8077,3.59619 -0.53495,1.15784 -0.96734,2.48091 -0.96085,2.94015 0.0144,1.02308 0.67292,2.94311 1.05276,3.06973 0.15303,0.051 0.27823,0.20107 0.27823,0.33347 0,0.1324 0.47268,0.86525 1.05041,1.62856 1.19315,1.57642 1.53622,2.68613 1.77125,5.7293 0.0908,1.17588 0.33847,2.86778 0.55034,3.75978 0.56263,2.36876 0.79878,8.26551 0.4061,10.14072 -0.21277,1.01609 -0.77605,2.23238 -1.66317,3.59132 -0.73779,1.13018 -1.27687,2.22314 -1.19796,2.42879 0.0789,0.20565 0.45181,0.49114 0.82864,0.63441 0.37684,0.14327 0.76673,0.4738 0.86643,0.7345 0.0997,0.2607 0.56976,0.98346 1.04459,1.60613 2.26735,2.97333 2.56249,5.46012 2.46335,20.75518 -0.0687,10.60098 -0.0208,12.31302 0.42485,15.15839 0.34135,2.1797 0.44867,3.81492 0.33489,5.10256 -0.68728,7.77742 -0.87555,12.47764 -0.75991,18.97064 0.12634,7.09394 -0.17994,12.13916 -0.77284,12.73058 -0.62647,0.62492 -4.59182,0.27686 -8.83746,-0.7757 -6.2718,-1.55487 -7.86432,-1.24801 -12.18184,2.34735 -1.87098,1.55802 -2.27881,1.77834 -3.59672,1.943 -2.08831,0.26092 -4.59967,-0.003 -7.68308,-0.80672 -2.99109,-0.77987 -4.1331,-0.83615 -5.67741,-0.27979 -1.525,0.5494 -2.07123,0.49772 -4.33959,-0.41058 -2.45466,-0.98289 -3.65212,-1.00937 -5.74824,-0.12713 -4.34534,1.82893 -9.73604,2.36934 -21.06466,2.11171 -9.13278,-0.20769 -9.90054,-0.10633 -12.7875,1.68825 -2.37463,1.4761 -3.26627,1.7228 -4.68001,1.29484 z M 58.617432,200.35152 c 1.50738,-0.17311 3.87962,-0.81704 7.38529,-2.0047 2.84052,-0.96232 6.31883,-1.98689 7.72957,-2.27682 2.2737,-0.46728 7.06248,-2.4275 7.84705,-3.21207 0.23228,-0.23228 -4.52594,-4.99396 -9.64069,-9.64774 -1.64365,-1.49551 -4.48363,-4.32241 -6.31107,-6.28201 -1.82744,-1.95959 -3.98729,-4.16737 -4.79967,-4.90618 -0.81238,-0.73881 -2.67739,-2.61478 -4.14446,-4.16884 -4.59642,-4.86895 -7.15302,-7.25687 -8.50061,-7.93975 -0.71609,-0.36287 -1.36468,-0.65976 -1.44132,-0.65976 -0.33288,0 -1.90469,3.5887 -2.86033,6.53059 -0.57149,1.75931 -1.58968,4.39995 -2.26264,5.86807 -0.67296,1.46813 -1.7493,4.14324 -2.39185,5.9447 -0.64255,1.80146 -1.73577,4.65372 -2.42937,6.33835 -0.6936,1.68463 -1.32479,3.68011 -1.40264,4.43439 l -0.14154,1.37143 2.91795,2.39933 c 1.60487,1.31964 4.19471,3.64575 5.75518,5.16913 3.56934,3.48451 3.87946,3.60466 8.84495,3.42677 1.99403,-0.0714 4.62482,-0.24464 5.8462,-0.38489 z m 102.012828,-1.50345 c 2.88129,-0.66822 2.36062,-0.0396 5.8801,-7.09916 2.18497,-4.38274 6.53934,-18.09012 7.52191,-23.67871 0.43505,-2.47444 0.3036,-3.48388 -0.62415,-4.79302 -0.95354,-1.34555 -7.06536,-5.67838 -9.41977,-6.67794 -2.05272,-0.87147 -2.91521,-1.43398 -8.76304,-5.71511 -3.12361,-2.28676 -8.3028,-5.6796 -14.50202,-9.50014 -3.4983,-2.15597 -7.37282,-4.77862 -9.66801,-6.54425 -1.18165,-0.90901 -6.80118,-4.77346 -12.48785,-8.58767 -5.68667,-3.81422 -10.96064,-7.49569 -11.71992,-8.18105 -0.75928,-0.68535 -2.4635,-1.94168 -3.78716,-2.79184 -1.32366,-0.85017 -4.146668,-2.70226 -6.273338,-4.11576 -2.12667,-1.41351 -4.95432,-3.2762 -6.28368,-4.13933 -1.32935,-0.86313 -3.56507,-2.43459 -4.96828,-3.49214 -3.53659,-2.66541 -5.83563,-4.175641 -11.27935,-7.409378 -2.92757,-1.739067 -5.3868,-3.422047 -6.52184,-4.46324 -1.00216,-0.919303 -3.60044,-2.954856 -5.77395,-4.523452 -2.17351,-1.568598 -5.28119,-3.87699 -6.90595,-5.129765 -1.62477,-1.252773 -4.07316,-2.835662 -5.44087,-3.517525 -2.14793,-1.070832 -2.7151,-1.240602 -4.16262,-1.245996 -1.516,-0.0056 -2.14979,0.201554 -6.64414,2.172152 -4.94413,2.167805 -4.96864,2.182759 -5.04108,3.07513 -0.0462,0.568574 0.1504,1.255842 0.53711,1.878055 0.52176,0.839502 3.87937,4.143473 8.96418,8.820965 0.72255,0.664676 2.09926,2.171242 3.05935,3.347924 0.96009,1.176678 3.2729,3.65411 5.13959,5.50539 1.86669,1.85129 4.44697,4.63491 5.73396,6.18582 1.28699,1.55091 3.50605,3.9688 4.93125,5.3731 1.4252,1.40429 3.49765,3.62611 4.60545,4.93739 3.46317,4.09929 4.29548,5.00763 8.88518,9.69692 6.69142,6.83662 24.864128,25.93433 26.645168,28.00143 0.85692,0.99455 2.81623,3.0772 4.35403,4.62811 1.53779,1.55091 3.06324,3.18239 3.38988,3.62551 0.32665,0.44312 2.19235,2.43714 4.14602,4.43117 1.95367,1.99403 4.19218,4.41103 4.97447,5.37112 0.78229,0.96009 3.78946,4.16261 6.68259,7.11673 2.89314,2.95411 6.72371,7.12345 8.51237,9.26518 1.78866,2.14173 4.08066,4.69364 5.09333,5.67091 l 1.84122,1.77685 3.35695,0.30753 c 1.84632,0.16914 5.53225,0.31464 8.19095,0.32333 2.65871,0.009 5.07571,0.11967 5.37112,0.24661 0.29541,0.12694 0.55983,0.2393 0.58759,0.24968 0.0278,0.0104 0.86622,-0.17031 1.86325,-0.40153 z m -4.17205,-89.01103 c 1.36529,-0.37926 1.58693,-1.07239 1.58693,-4.96275 0,-1.92928 0.1129,-3.39823 0.26856,-3.49444 0.1477,-0.0913 0.26855,-0.6919 0.26855,-1.33469 0,-0.642801 0.28815,-2.297353 0.64033,-3.676795 0.35218,-1.379443 0.78173,-3.193627 0.95456,-4.03152 0.17283,-0.837896 0.48893,-1.668431 0.70245,-1.845638 0.45978,-0.38158 0.5296,-3.108206 0.1166,-4.55332 -0.23435,-0.820005 -0.77389,-1.272887 -4.22826,-3.549164 -4.57685,-3.015945 -5.53536,-3.333469 -9.26379,-3.06882 -2.69037,0.190969 -6.40616,0.987621 -12.00312,2.57343 -3.81433,1.080731 -6.93287,1.715088 -10.05431,2.045198 -1.1715,0.123894 -1.74935,0.336235 -2.23407,0.820957 -1.10054,1.100537 -2.68596,-0.33591 15.3622,13.918721 8.65361,6.834711 12.77978,9.966801 14.23346,10.804331 1.16912,0.67358 2.15615,0.76945 3.64991,0.3545 z"
       id="path95" />
  </g>
</svg>
